<svg width="34" height="34" viewBox="0 0 34 34" fill="none" xmlns="http://www.w3.org/2000/svg">
<g clip-path="url(#clip0_55_420)">
<path d="M17 4.25C17.7824 4.25 18.4167 4.88427 18.4167 5.66667C18.4167 6.39318 17.8698 6.99197 17.1652 7.0738L17 7.08333H9.91669C9.19018 7.08333 8.59139 7.63023 8.50955 8.33479L8.50002 8.5V25.5C8.50002 26.2265 9.04692 26.8253 9.75148 26.9071L9.91669 26.9167H16.2917C17.0741 26.9167 17.7084 27.5509 17.7084 28.3333C17.7084 29.0599 17.1615 29.6586 16.4569 29.7405L16.2917 29.75H9.91669C7.65331 29.75 5.80317 27.9808 5.6739 25.7497L5.66669 25.5V8.5C5.66669 6.23662 7.436 4.38648 9.66697 4.25721L9.91669 4.25H17ZM25.0849 11.9913L29.092 15.9983C29.6452 16.5515 29.6452 17.4485 29.092 18.0017L25.0849 22.0086C24.5317 22.562 23.6348 22.562 23.0815 22.0086C22.5283 21.4554 22.5283 20.5584 23.0815 20.0052L24.6701 18.4167H17C16.2176 18.4167 15.5834 17.7824 15.5834 17C15.5834 16.2176 16.2176 15.5833 17 15.5833H24.6701L23.0815 13.9948C22.5283 13.4416 22.5283 12.5446 23.0815 11.9913C23.6348 11.4381 24.5317 11.4381 25.0849 11.9913Z" fill="#7D84B2"/>
</g>
<defs>
<clipPath id="clip0_55_420">
<rect width="34" height="34" fill="white"/>
</clipPath>
</defs>
</svg>
